<?xml version="1.0" encoding="utf-8"?>
<!-- Generator: Adobe Illustrator 26.2.1, SVG Export Plug-In . SVG Version: 6.00 Build 0)  -->
<svg version="1.1" id="Layer_1" xmlns="http://www.w3.org/2000/svg" xmlns:xlink="http://www.w3.org/1999/xlink" x="0px" y="0px"
	 viewBox="0 0 517.24 217.28" style="enable-background:new 0 0 517.24 217.28;" xml:space="preserve">
<style type="text/css">
	.st0{fill:#00B7B1;}
	.st1{fill:#434A51;}
</style>
<g>
	<g>
		<path class="st0" d="M85.08,156.24l-1.3-0.53c-18.98-7.69-31.88-26.01-31.77-46.49c0.15-28.37,24.3-51.17,53.15-49.09
			c24.44,1.76,44.17,21.63,45.73,46.08c1.39,21.75-11.16,41.36-31.16,49.29l-1.23,0.49c-1.13,0.45-2.41,0.02-3.04-1.02l-18.01-29.68
			c-0.65-1.07,0.05-2.44,1.3-2.54l3.39-0.28c6.62-0.54,12.08-5.8,12.36-12.44c0.32-7.78-6.23-14.14-14.07-13.5
			c-6.58,0.53-11.93,6.76-11.93,13.36l0,44.04C88.5,155.7,86.72,156.9,85.08,156.24z M109.23,129.1l10.63,17.51
			c14.11-6.95,23.05-21.17,23.05-37.12c0-22.83-18.57-41.4-41.4-41.4c-22.83,0-41.4,18.57-41.4,41.4c0,14.86,7.8,28.26,20.31,35.63
			v-35.63c0-11.63,9.46-21.09,21.09-21.09s21.09,9.46,21.09,21.09C122.6,118.28,117.06,125.98,109.23,129.1z"/>
	</g>
	<g>
		<path class="st1" d="M241.25,84.37c-11.38,0-20.63,9.26-20.63,20.64s9.26,20.63,20.63,20.63s20.63-9.26,20.63-20.63
			S252.63,84.37,241.25,84.37z M241.25,116.21c-6.17,0-11.2-5.02-11.2-11.2c0-6.17,5.02-11.2,11.2-11.2c6.17,0,11.2,5.02,11.2,11.2
			C252.45,111.18,247.43,116.21,241.25,116.21z"/>
		<path class="st1" d="M288.26,84.37c-11.38,0-20.63,9.26-20.63,20.64s9.26,20.63,20.63,20.63c11.38,0,20.63-9.26,20.63-20.63
			S299.64,84.37,288.26,84.37z M288.26,116.21c-6.17,0-11.2-5.02-11.2-11.2c0-6.17,5.02-11.2,11.2-11.2s11.2,5.02,11.2,11.2
			C299.46,111.18,294.44,116.21,288.26,116.21z"/>
		<path class="st1" d="M449.83,104.46l15.31-19.06c0.2-0.25,0.02-0.63-0.3-0.63l-10.74,0c-0.24,0-0.46,0.11-0.61,0.3l-9.33,12.2
			l-9.32-12.2c-0.14-0.19-0.37-0.3-0.61-0.3l-10.74,0c-0.33,0-0.51,0.38-0.3,0.63l15.31,19.06l-15.31,19.06
			c-0.2,0.25-0.02,0.63,0.3,0.63h10.74c0.24,0,0.46-0.11,0.61-0.3l9.32-12.2l9.33,12.2c0.14,0.19,0.37,0.3,0.61,0.3h10.74
			c0.33,0,0.51-0.38,0.3-0.63L449.83,104.46z"/>
		<path class="st1" d="M422.38,101.67c-1.64-10-10.46-17.62-20.99-17.29c-10.62,0.33-19.43,8.98-19.96,19.59
			c-0.58,11.85,8.89,21.67,20.61,21.67c6.26,0,11.87-2.81,15.65-7.24c0.44-0.52,0.3-1.32-0.27-1.69l-6.12-3.93
			c-0.46-0.29-1.05-0.2-1.44,0.18c-2.02,1.99-4.76,3.24-7.82,3.24c-4.78,0-8.87-3.02-10.47-7.25h20.93h9.78
			c0.25-1.28,0.39-2.59,0.39-3.94C422.68,103.87,422.56,102.76,422.38,101.67L422.38,101.67z M412.73,101.67h-21.38
			c1.42-4.55,5.68-7.86,10.69-7.86C407.05,93.81,411.31,97.12,412.73,101.67L412.73,101.67z"/>
		<path class="st1" d="M357.51,84.37c-4.42,0-8.45,2.6-11.48,6.31c-3.13-3.85-7.9-6.31-13.24-6.31c-2.75,0-5.34,1.13-7.64,2.94v-1.8
			c0-0.63-0.51-1.15-1.15-1.15h-8.29v39.78H324c0.63,0,1.15-0.51,1.15-1.15v-21.56c0-4.21,3.43-7.64,7.64-7.64
			c4.21,0,7.64,3.43,7.64,7.64v22.7h8.29c0.63,0,1.15-0.51,1.15-1.15v-21.56c0-4.21,3.43-7.64,7.64-7.64c4.21,0,7.64,3.43,7.64,7.64
			v22.7h8.29c0.63,0,1.15-0.51,1.15-1.15v-21.56C374.59,92.03,366.93,84.37,357.51,84.37z"/>
		<path class="st1" d="M204.72,106.13c6.03-2.45,10.28-8.36,10.28-15.27v-2.32c0-9.1-7.38-16.48-16.48-16.48h-22.67v52.01h8.29
			c0.63,0,1.15-0.51,1.15-1.15v-15.58h8.29l10.75,16.46c0.14,0.22,0.38,0.35,0.64,0.35h10.46c0.46,0,0.73-0.51,0.48-0.89
			L204.72,106.13z M185.29,81.5h13.23c3.89,0,7.05,3.16,7.05,7.05v2.32c0,3.88-3.16,7.05-7.05,7.05h-13.23V81.5z"/>
	</g>
	<g>
		<path class="st1" d="M179.7,134.46h-3.9v-2.5h10.64v2.5h-3.88v10.84h-2.86V134.46z"/>
		<path class="st1" d="M194.74,139.43c0-1.34-0.7-1.76-1.8-1.76c-0.98,0-1.76,0.56-2.2,1.14v6.5h-2.54v-13.34h2.54v4.94
			c0.62-0.74,1.82-1.5,3.4-1.5c2.12,0,3.14,1.16,3.14,3.04v6.86h-2.54V139.43z"/>
		<path class="st1" d="M204.18,135.4c2.88,0,4.84,2.16,4.84,5.32v0.56h-7.18c0.16,1.22,1.14,2.24,2.78,2.24
			c0.9,0,1.96-0.36,2.58-0.96l1.12,1.64c-0.96,0.88-2.48,1.34-3.98,1.34c-2.94,0-5.16-1.98-5.16-5.08
			C199.18,137.66,201.24,135.4,204.18,135.4z M201.8,139.56h4.76c-0.06-0.92-0.7-2.14-2.38-2.14
			C202.6,137.42,201.92,138.6,201.8,139.56z"/>
		<path class="st1" d="M216.04,131.96h9.44v2.44h-6.6v2.9h6.46v2.44h-6.46v3.1h6.6v2.46h-9.44V131.96z"/>
		<path class="st1" d="M231.42,142.05l-2.22,3.26h-2.82l3.42-4.96l-3.22-4.7h2.84l2,2.98l1.98-2.98h2.84l-3.24,4.7l3.46,4.96h-2.84
			L231.42,142.05z"/>
		<path class="st1" d="M237.72,148.99v-13.34h2.54v1.22c0.74-0.94,1.8-1.46,2.98-1.46c2.48,0,4.28,1.84,4.28,5.06
			s-1.8,5.08-4.28,5.08c-1.14,0-2.2-0.48-2.98-1.48v4.92H237.72z M242.44,137.66c-0.82,0-1.76,0.48-2.18,1.1v3.42
			c0.42,0.6,1.36,1.1,2.18,1.1c1.46,0,2.44-1.14,2.44-2.82C244.88,138.81,243.9,137.66,242.44,137.66z"/>
		<path class="st1" d="M253.8,135.4c2.88,0,4.84,2.16,4.84,5.32v0.56h-7.18c0.16,1.22,1.14,2.24,2.78,2.24
			c0.9,0,1.96-0.36,2.58-0.96l1.12,1.64c-0.96,0.88-2.48,1.34-3.98,1.34c-2.94,0-5.16-1.98-5.16-5.08
			C248.8,137.66,250.86,135.4,253.8,135.4z M251.42,139.56h4.76c-0.06-0.92-0.7-2.14-2.38-2.14
			C252.22,137.42,251.54,138.6,251.42,139.56z"/>
		<path class="st1" d="M260.48,135.64h2.54v1.32c0.68-0.86,1.88-1.54,3.08-1.54v2.48c-0.18-0.04-0.42-0.08-0.7-0.08
			c-0.84,0-1.96,0.48-2.38,1.1v6.38h-2.54V135.64z"/>
		<path class="st1" d="M268.18,142.91v-5.04h-1.6v-2.22h1.6V133h2.56v2.64h1.96v2.22h-1.96v4.36c0,0.6,0.32,1.06,0.88,1.06
			c0.38,0,0.74-0.14,0.88-0.28l0.54,1.92c-0.38,0.34-1.06,0.62-2.12,0.62C269.14,145.55,268.18,144.63,268.18,142.91z"/>
		<path class="st1" d="M274.7,142.26c0.7,0.66,2.14,1.32,3.34,1.32c1.1,0,1.62-0.38,1.62-0.98c0-0.68-0.84-0.92-1.94-1.14
			c-1.66-0.32-3.8-0.72-3.8-3.02c0-1.62,1.42-3.04,3.96-3.04c1.64,0,2.94,0.56,3.9,1.32l-1.02,1.74c-0.58-0.62-1.68-1.12-2.86-1.12
			c-0.92,0-1.52,0.34-1.52,0.9c0,0.6,0.76,0.82,1.84,1.04c1.66,0.32,3.88,0.76,3.88,3.16c0,1.76-1.5,3.1-4.18,3.1
			c-1.68,0-3.3-0.56-4.32-1.5L274.7,142.26z"/>
		<path class="st1" d="M288.84,132.7c0-0.84,0.7-1.52,1.52-1.52c0.84,0,1.52,0.68,1.52,1.52c0,0.84-0.68,1.52-1.52,1.52
			C289.54,134.22,288.84,133.54,288.84,132.7z M289.1,135.64h2.54v9.66h-2.54V135.64z"/>
		<path class="st1" d="M300.68,139.47c0-1.34-0.7-1.8-1.78-1.8c-1,0-1.78,0.56-2.2,1.14v6.5h-2.54v-9.66h2.54v1.26
			c0.62-0.74,1.8-1.5,3.38-1.5c2.12,0,3.14,1.2,3.14,3.08v6.82h-2.54V139.47z"/>
		<path class="st1" d="M318.78,136.14l-2.32,9.16h-3.02l-3.82-13.34h3.18l2.34,9.64l2.54-9.64h2.22l2.52,9.64l2.32-9.64h3.2
			l-3.8,13.34h-3.02L318.78,136.14z"/>
		<path class="st1" d="M327.8,140.47c0-2.74,1.92-5.06,5.1-5.06c3.2,0,5.12,2.32,5.12,5.06c0,2.76-1.92,5.08-5.12,5.08
			C329.72,145.55,327.8,143.23,327.8,140.47z M335.38,140.47c0-1.5-0.9-2.8-2.48-2.8s-2.46,1.3-2.46,2.8c0,1.52,0.88,2.82,2.46,2.82
			S335.38,141.99,335.38,140.47z"/>
		<path class="st1" d="M339.9,135.64h2.54v1.32c0.68-0.86,1.88-1.54,3.08-1.54v2.48c-0.18-0.04-0.42-0.08-0.7-0.08
			c-0.84,0-1.96,0.48-2.38,1.1v6.38h-2.54V135.64z"/>
		<path class="st1" d="M350.8,141.59l-1.16,1.24v2.48h-2.54v-13.34h2.54v7.98l3.66-4.3h3.12l-3.82,4.38l3.94,5.28h-3.18
			L350.8,141.59z"/>
		<path class="st1" d="M358.36,137.86h-1.6v-2.22h1.6v-0.52c0-2.1,1.36-3.36,3.26-3.36c0.72,0,1.38,0.16,1.84,0.4l-0.52,1.8
			c-0.22-0.14-0.52-0.2-0.82-0.2c-0.72,0-1.2,0.48-1.2,1.4v0.48h1.96v2.22h-1.96v7.44h-2.56V137.86z"/>
		<path class="st1" d="M363.72,140.47c0-2.74,1.92-5.06,5.1-5.06c3.2,0,5.12,2.32,5.12,5.06c0,2.76-1.92,5.08-5.12,5.08
			C365.64,145.55,363.72,143.23,363.72,140.47z M371.3,140.47c0-1.5-0.9-2.8-2.48-2.8s-2.46,1.3-2.46,2.8
			c0,1.52,0.88,2.82,2.46,2.82S371.3,141.99,371.3,140.47z"/>
		<path class="st1" d="M375.82,135.64h2.54v1.32c0.68-0.86,1.88-1.54,3.08-1.54v2.48c-0.18-0.04-0.42-0.08-0.7-0.08
			c-0.84,0-1.96,0.48-2.38,1.1v6.38h-2.54V135.64z"/>
		<path class="st1" d="M387.52,135.4c1.98,0,3.18,0.86,3.82,1.74l-1.66,1.56c-0.46-0.68-1.16-1.04-2.04-1.04
			c-1.54,0-2.62,1.12-2.62,2.8c0,1.68,1.08,2.82,2.62,2.82c0.88,0,1.58-0.4,2.04-1.04l1.66,1.54c-0.64,0.9-1.84,1.76-3.82,1.76
			c-2.98,0-5.12-2.1-5.12-5.08C382.4,137.5,384.54,135.4,387.52,135.4z"/>
		<path class="st1" d="M397.38,135.4c2.88,0,4.84,2.16,4.84,5.32v0.56h-7.18c0.16,1.22,1.14,2.24,2.78,2.24
			c0.9,0,1.96-0.36,2.58-0.96l1.12,1.64c-0.96,0.88-2.48,1.34-3.98,1.34c-2.94,0-5.16-1.98-5.16-5.08
			C392.38,137.66,394.44,135.4,397.38,135.4z M395,139.56h4.76c-0.06-0.92-0.7-2.14-2.38-2.14C395.8,137.42,395.12,138.6,395,139.56
			z"/>
		<path class="st1" d="M412.32,134.46h-3.9v-2.5h10.64v2.5h-3.88v10.84h-2.86V134.46z"/>
		<path class="st1" d="M419.46,135.64H422v1.32c0.68-0.86,1.88-1.54,3.08-1.54v2.48c-0.18-0.04-0.42-0.08-0.7-0.08
			c-0.84,0-1.96,0.48-2.38,1.1v6.38h-2.54V135.64z"/>
		<path class="st1" d="M432.46,144.31c-0.66,0.78-1.8,1.24-3.06,1.24c-1.54,0-3.36-1.04-3.36-3.2c0-2.26,1.82-3.08,3.36-3.08
			c1.28,0,2.42,0.4,3.06,1.18v-1.34c0-0.98-0.84-1.62-2.12-1.62c-1.04,0-2,0.38-2.82,1.14l-0.96-1.7c1.18-1.04,2.7-1.52,4.22-1.52
			c2.2,0,4.22,0.88,4.22,3.66v6.24h-2.54V144.31z M432.46,141.79c-0.42-0.56-1.22-0.84-2.04-0.84c-1,0-1.82,0.52-1.82,1.46
			c0,0.9,0.82,1.42,1.82,1.42c0.82,0,1.62-0.28,2.04-0.84V141.79z"/>
		<path class="st1" d="M436.14,135.64h2.72l2.52,6.72l2.52-6.72h2.74l-3.88,9.66h-2.74L436.14,135.64z"/>
		<path class="st1" d="M452.16,135.4c2.88,0,4.84,2.16,4.84,5.32v0.56h-7.18c0.16,1.22,1.14,2.24,2.78,2.24
			c0.9,0,1.96-0.36,2.58-0.96l1.12,1.64c-0.96,0.88-2.48,1.34-3.98,1.34c-2.94,0-5.16-1.98-5.16-5.08
			C447.15,137.66,449.22,135.4,452.16,135.4z M449.78,139.56h4.76c-0.06-0.92-0.7-2.14-2.38-2.14
			C450.58,137.42,449.9,138.6,449.78,139.56z"/>
		<path class="st1" d="M458.84,131.96h2.54v13.34h-2.54V131.96z"/>
		<path class="st1" d="M465.19,142.29c0.88,0,1.62,0.74,1.62,1.62s-0.74,1.62-1.62,1.62s-1.62-0.74-1.62-1.62
			S464.32,142.29,465.19,142.29z"/>
	</g>
</g>
</svg>
